# xmcd
#
# Track frame offsets:
#	150
#	12627
#	23478
#	35055
#	46764
#	58110
#	70587
#	81116
#	93207
#	103985
#	114044
#	126107
#	137089
#	149068
#	160608
#	169478
#	181228
#	192919
#	202768
#	215574
#	226905
#	238996
#	248260
#	258215
#	269032
#	281360
#	293435
#	304458
#	316176
#	325804
#
# Disc length: 4482 seconds
#
# Revision: 0
# Processed by: cddbd v1.5PL3 Copyright (c) Steve Scherf et al.
# Submitted via: dBpowerAMP V4.0
#
DISCID=a811801e
DTITLE=Jim Reeves - Welcome To My World Cd 3 Of 16
DYEAR=1900
DGENRE=Country
TTITLE0=I'm Hurting Inside
TTITLE1=If You Were Mine
TTITLE2=That's A Sad Affair
TTITLE3=My Last Farewell
TTITLE4=Jimbo Jenkins
TTITLE5=I've Lived A Lot In My Time
TTITLE6=Ichabob Crane
TTITLE7=My Lips Are Sealed
TTITLE8=Your Old Love Letters
TTITLE9=Waltzing On Top Of The World
TTITLE10=Beyond The Shadow Of A Doubt
TTITLE11=Love Me A Little Bit More
TTITLE12=According To My Heart
TTITLE13=Each Time You Leave
TTITLE14=Highway To Nowhere
TTITLE15=Breeze (Blow My Baby Back To Me)
TTITLE16=Roly-Poly
TTITLE17=Tweedle O'Twill
TTITLE18=Have I Told You Lately That I Love You
TTITLE19=Oklahoma Hills
TTITLE20=My Lips Are Sealed (rep)
TTITLE21=Pickin' A Chicken
TTITLE22=I've Got Just The Thing For You
TTITLE23=Mother Of A Honky Tonk Girl
TTITLE24=Am I Losing You
TTITLE25=Don't Tell Me
TTITLE26=I Can't Fly
TTITLE27=Don't Ask Me Why
TTITLE28=Waiting  For A Train
TTITLE29=Look Behind You
EXTD=Part of a 16 Cd Set
EXTT0=
EXTT1=
EXTT2=
EXTT3=
EXTT4=
EXTT5=
EXTT6=
EXTT7=
EXTT8=
EXTT9=
EXTT10=
EXTT11=
EXTT12=
EXTT13=
EXTT14=
EXTT15=
EXTT16=
EXTT17=
EXTT18=
EXTT19=
EXTT20=
EXTT21=
EXTT22=
EXTT23=
EXTT24=
EXTT25=
EXTT26=
EXTT27=
EXTT28=
EXTT29=
PLAYORDER=
